<svg width="24" height="24" viewBox="0 0 24 24" fill="none" xmlns="http://www.w3.org/2000/svg">
<path d="M22.1862 -0.0634766C23.1649 -0.0634766 23.962 0.711508 23.962 1.66743V22.2104C23.962 23.1664 23.1649 23.9427 22.1862 23.9427H1.72715C0.750324 23.9427 -0.043457 23.1664 -0.043457 22.2104V1.66743C-0.043457 0.711508 0.750324 -0.0634766 1.72715 -0.0634766H22.1862ZM20.4129 20.3923V14.1094C20.4129 11.024 19.7467 8.6519 16.1417 8.6519C14.4094 8.6519 13.2477 9.60173 12.7729 10.5023H12.7242V8.9362H9.31115V20.3923H12.8674V14.7261C12.8674 13.2316 13.1501 11.7836 15.0027 11.7836C16.83 11.7836 16.8528 13.4927 16.8528 14.8212V20.3923H20.4129ZM7.07751 8.9362H3.51342V20.3923H7.07751V8.9362ZM5.2964 3.2414C4.15289 3.2414 3.23081 4.16648 3.23081 5.3061C3.23081 6.44601 4.15289 7.37104 5.2964 7.37104C6.43542 7.37104 7.36012 6.44601 7.36012 5.3061C7.36012 4.16648 6.43542 3.2414 5.2964 3.2414Z" fill="white" fill-opacity="0.85"/>
</svg>
