<svg width="24" height="20" viewBox="0 0 24 20" fill="none" xmlns="http://www.w3.org/2000/svg">
<path d="M7.54753 19.7506C16.6042 19.7506 21.5578 12.2473 21.5578 5.74037C21.5578 5.52728 21.5578 5.31512 21.5434 5.10391C22.507 4.40683 23.3389 3.54381 24 2.55512C23.1014 2.95333 22.148 3.21442 21.1718 3.32983C22.1995 2.71464 22.9692 1.7463 23.3366 0.606296C22.3701 1.17981 21.3126 1.58406 20.2099 1.80151C19.2789 0.811468 17.9786 0.24939 16.6196 0.24939C13.9158 0.24939 11.691 2.47426 11.691 5.17801C11.691 5.55311 11.7338 5.92703 11.8185 6.29237C7.86145 6.09405 4.16948 4.22233 1.67039 1.14775C0.370828 3.38491 1.04325 6.28412 3.19486 7.72084C2.41134 7.69764 1.64466 7.48623 0.96 7.10453V7.16692C0.960656 9.50195 2.62158 11.5315 4.91039 11.9938C4.18552 12.1915 3.42478 12.2204 2.68706 12.0783C3.33052 14.0792 5.18602 15.4584 7.28738 15.4978C5.54409 16.8678 3.38939 17.612 1.17216 17.6098C0.780375 17.6091 0.388969 17.5854 0 17.5388C2.25159 18.9837 4.87219 19.7503 7.54753 19.7468" fill="white" fill-opacity="0.85"/>
</svg>
